<svg width="66" height="66" viewBox="0 0 66 66" fill="none" xmlns="http://www.w3.org/2000/svg">
<path d="M18.3999 44.8C17.6266 45.5733 17.6266 46.8267 18.3999 47.6C19.1731 48.3733 20.4268 48.3733 21.2 47.6L18.3999 44.8ZM34.3999 34.4C35.1732 33.6267 35.1732 32.3733 34.3999 31.6C33.6267 30.8268 32.3732 30.8268 31.5999 31.6L34.3999 34.4ZM31.5999 31.6C30.8267 32.3733 30.8267 33.6267 31.5999 34.4C32.3732 35.1733 33.6267 35.1733 34.3999 34.4L31.5999 31.6ZM47.5999 21.2001C48.3732 20.4268 48.3732 19.1732 47.5999 18.3999C46.8267 17.6267 45.5732 17.6267 44.7999 18.3999L47.5999 21.2001ZM34.3999 31.6C33.6267 30.8268 32.3732 30.8268 31.5999 31.6C30.8267 32.3733 30.8267 33.6267 31.5999 34.4L34.3999 31.6ZM44.7999 47.6C45.5732 48.3733 46.8267 48.3733 47.5999 47.6C48.3732 46.8267 48.3732 45.5733 47.5999 44.8L44.7999 47.6ZM31.5999 34.4C32.3732 35.1733 33.6267 35.1733 34.3999 34.4C35.1732 33.6267 35.1732 32.3733 34.3999 31.6L31.5999 34.4ZM21.2 18.3999C20.4268 17.6267 19.1731 17.6267 18.3999 18.3999C17.6266 19.1732 17.6266 20.4268 18.3999 21.2001L21.2 18.3999ZM21.2 47.6L34.3999 34.4L31.5999 31.6L18.3999 44.8L21.2 47.6ZM34.3999 34.4L47.5999 21.2001L44.7999 18.3999L31.5999 31.6L34.3999 34.4ZM31.5999 34.4L44.7999 47.6L47.5999 44.8L34.3999 31.6L31.5999 34.4ZM34.3999 31.6L21.2 18.3999L18.3999 21.2001L31.5999 34.4L34.3999 31.6Z" fill="white"/>
<path d="M18.3999 44.8C17.6266 45.5733 17.6266 46.8267 18.3999 47.6C19.1731 48.3733 20.4268 48.3733 21.2 47.6M18.3999 44.8L21.2 47.6M18.3999 44.8L31.5999 31.6M21.2 47.6L34.3999 34.4M34.3999 34.4C35.1732 33.6267 35.1732 32.3733 34.3999 31.6M34.3999 34.4L31.5999 31.6M34.3999 34.4C33.6267 35.1733 32.3732 35.1733 31.5999 34.4M34.3999 34.4L47.5999 21.2001M34.3999 31.6C33.6267 30.8268 32.3732 30.8268 31.5999 31.6M34.3999 31.6L31.5999 34.4M34.3999 31.6L47.5999 44.8M34.3999 31.6L21.2 18.3999M31.5999 31.6C30.8267 32.3733 30.8267 33.6267 31.5999 34.4M31.5999 31.6L44.7999 18.3999M31.5999 34.4L44.7999 47.6M31.5999 34.4L18.3999 21.2001M47.5999 21.2001C48.3732 20.4268 48.3732 19.1732 47.5999 18.3999C46.8267 17.6267 45.5732 17.6267 44.7999 18.3999M47.5999 21.2001L44.7999 18.3999M44.7999 47.6C45.5732 48.3733 46.8267 48.3733 47.5999 47.6C48.3732 46.8267 48.3732 45.5733 47.5999 44.8M44.7999 47.6L47.5999 44.8M21.2 18.3999C20.4268 17.6267 19.1731 17.6267 18.3999 18.3999C17.6266 19.1732 17.6266 20.4268 18.3999 21.2001M21.2 18.3999L18.3999 21.2001" stroke="white"/>
</svg>
