<svg width="208" height="187" viewBox="0 0 208 187" fill="none" xmlns="http://www.w3.org/2000/svg">
<path fill-rule="evenodd" clip-rule="evenodd" d="M113.741 3.1669C116.777 4.90178 119.293 7.41791 121.028 10.4539L204.783 157.024C210.149 166.415 206.886 178.377 197.496 183.743C194.537 185.434 191.188 186.324 187.78 186.324H20.2708C9.45526 186.324 0.6875 177.556 0.6875 166.74C0.6875 163.332 1.57688 159.983 3.26774 157.024L87.0221 10.4539C92.3882 1.06339 104.351 -2.19913 113.741 3.1669ZM103.5 125.427C96.506 125.427 91.2604 130.597 91.2604 137.49C91.2604 144.697 96.347 149.867 103.5 149.867C110.494 149.867 115.74 144.697 115.74 137.647C115.74 130.597 110.494 125.427 103.5 125.427ZM113.292 49.5416H93.7083V108.292H113.292V49.5416Z" fill="white"/>
</svg>
