<svg width="215" height="215" viewBox="0 0 215 215" fill="none" xmlns="http://www.w3.org/2000/svg">
<path d="M80.625 89.5834L109.812 111.474C113.561 114.285 118.843 113.732 121.929 110.206L179.167 44.7917" stroke="white" stroke-width="18" stroke-linecap="round"/>
<path d="M188.125 107.5C188.125 124.346 182.849 140.769 173.036 154.462C163.224 168.156 149.368 178.431 133.416 183.847C117.464 189.261 100.217 189.543 84.0958 184.654C67.9751 179.763 53.7911 169.946 43.5359 156.582C33.2807 143.217 27.4694 126.975 26.9182 110.138C26.367 93.3011 31.1036 76.7142 40.4627 62.7072C49.822 48.7002 63.3335 37.9766 79.0999 32.0426C94.8661 26.1085 112.096 25.2622 128.368 29.6223" stroke="white" stroke-width="18" stroke-linecap="round"/>
</svg>
